<svg width="1024" height="1024" viewBox="0 0 1024 1024" fill="none" xmlns="http://www.w3.org/2000/svg">
<g style="mix-blend-mode:multiply">
<rect width="1024" height="1024" fill="white"/>
<rect width="1024" height="1024" fill="#1ED761" fill-opacity="0.3"/>
<path d="M511.878 768.157C649.881 768.157 761.755 653.507 761.755 512.079C761.755 370.65 649.881 256 511.878 256C373.874 256 262 370.65 262 512.079C262 653.507 373.874 768.157 511.878 768.157Z" fill="#1ED761"/>
<path d="M637.988 383.124C637.885 382.623 637.641 382.162 637.285 381.795C636.929 381.427 636.475 381.169 635.978 381.051C602.804 372.94 526.153 401.843 484.624 443.355C477.217 450.702 470.465 458.68 464.444 467.2C451.637 466.067 438.831 467.013 427.916 471.771C397.121 485.325 388.155 520.691 385.657 535.904C385.516 536.737 385.569 537.591 385.814 538.4C386.058 539.208 386.486 539.949 387.066 540.564C387.645 541.179 388.359 541.651 389.151 541.943C389.944 542.235 390.793 542.34 391.633 542.248L441.085 536.794C441.121 540.522 441.346 544.246 441.759 547.952C442.008 550.525 443.15 552.93 444.988 554.749L464.138 573.853C465.958 575.688 468.362 576.83 470.935 577.082C474.619 577.494 478.323 577.719 482.03 577.756L476.604 627.146C476.514 627.985 476.619 628.834 476.911 629.626C477.204 630.418 477.676 631.131 478.291 631.71C478.905 632.289 479.646 632.718 480.454 632.963C481.262 633.207 482.115 633.262 482.948 633.121C498.133 630.686 533.561 621.72 547.036 590.924C551.794 580.01 552.768 567.266 551.669 554.522C560.209 548.5 568.209 541.746 575.577 534.335C617.236 492.886 645.975 417.946 637.988 383.124ZM534.014 484.889C530.21 481.087 527.619 476.243 526.569 470.969C525.518 465.694 526.056 460.227 528.113 455.258C530.17 450.289 533.655 446.042 538.126 443.054C542.597 440.066 547.855 438.471 553.232 438.471C558.61 438.471 563.867 440.066 568.339 443.054C572.81 446.042 576.295 450.289 578.352 455.258C580.409 460.227 580.946 465.694 579.896 470.969C578.845 476.243 576.254 481.087 572.45 484.889C569.928 487.415 566.932 489.419 563.635 490.786C560.337 492.153 556.802 492.857 553.232 492.857C549.663 492.857 546.128 492.153 542.83 490.786C539.533 489.419 536.537 487.415 534.014 484.889Z" fill="white"/>
<path d="M462.835 587.69C459.731 590.8 454.753 592.012 448.76 593.048C435.297 595.342 423.408 583.709 425.826 570.098C426.75 564.938 429.48 557.705 431.179 556.006C431.55 555.642 431.798 555.17 431.885 554.657C431.973 554.144 431.897 553.617 431.669 553.15C431.44 552.683 431.07 552.299 430.61 552.055C430.151 551.81 429.627 551.716 429.112 551.786C421.583 552.707 414.579 556.121 409.214 561.483C395.898 574.81 394.64 624.263 394.64 624.263C394.64 624.263 444.121 623.005 457.437 609.678C462.816 604.318 466.234 597.303 467.14 589.763C467.349 587.396 464.466 585.985 462.835 587.69Z" fill="white"/>
</g>
</svg>
