<svg width="56" height="56" viewBox="0 0 56 56" fill="none" xmlns="http://www.w3.org/2000/svg">
<circle cx="28" cy="28" r="28" fill="#E828AA"/>
<path d="M40.5999 39.1999C40.5999 36.7616 38.2624 34.6873 34.9999 33.9185M32.1999 39.2C32.1999 36.1072 28.4391 33.6 23.7999 33.6C19.1607 33.6 15.3999 36.1072 15.3999 39.2M32.1999 29.4C35.2927 29.4 37.7999 26.8927 37.7999 23.8C37.7999 20.7072 35.2927 18.2 32.1999 18.2M23.7999 29.4C20.7071 29.4 18.1999 26.8927 18.1999 23.8C18.1999 20.7072 20.7071 18.2 23.7999 18.2C26.8927 18.2 29.3999 20.7072 29.3999 23.8C29.3999 26.8927 26.8927 29.4 23.7999 29.4Z" stroke="white" stroke-width="2" stroke-linecap="round" stroke-linejoin="round"/>
</svg>
