<?xml version="1.0" encoding="utf-8"?>
<!-- Generator: Adobe Illustrator 19.2.1, SVG Export Plug-In . SVG Version: 6.00 Build 0)  -->
<svg version="1.1" id="layer" xmlns="http://www.w3.org/2000/svg" xmlns:xlink="http://www.w3.org/1999/xlink" x="0px" y="0px"
	 viewBox="0 0 652 652" style="enable-background:new 0 0 652 652;" xml:space="preserve">
<path d="M78.7,263.1c-31.7,0-57.5,25.7-57.5,57.5c0,31.7,25.7,57.5,57.5,57.5s57.5-25.7,57.5-57.5c0,0,0,0,0,0
	C136.2,288.9,110.4,263.1,78.7,263.1z M120.8,323.7H94.1c-1.8,8.8-10.3,14.5-19.1,12.7c-8.8-1.8-14.5-10.3-12.7-19.1
	c1.8-8.8,10.3-14.5,19.1-12.7c6.7,1.3,11.8,6.7,12.9,13.5h26.5c1.6,0,2.8,1.3,2.8,2.8C123.6,322.5,122.3,323.7,120.8,323.7
	L120.8,323.7z M599.1,321c4.3,0,7.3,2.8,8.2,7.2h-16.8C591.3,323.6,594.6,321,599.1,321 M621.2,332.4c0-13.3-9.3-22.8-22-22.8
	c-13.6,0-23.2,9.7-23.2,23.3c0,14,9.9,23.4,23.5,23.4c10.2,0,16.5-3.4,20.2-8.1l-8.3-8.5c-2.6,3-6.5,4.8-10.5,4.9
	c-5.5,0-9.8-2.7-10.8-7.8h30.6C621,335.8,621.2,333.6,621.2,332.4 M552,355.4h14.4V322h8.6v-11.6h-8.6v-6.5c0-3.6,1.7-4.9,4.2-4.9
	c1.3,0,3.7,0.6,5.6,1.7l2.7-10.4c-1.6-1.1-6.2-3.5-12.1-3.5c-9,0-14.8,5.4-14.8,16.6v7.1h-4.3V322h4.3L552,355.4z M519.3,343.5
	c-5.7,0-9.7-4.2-9.7-10.6c0-6.4,4.1-10.7,9.7-10.7c5.4,0,9.5,4.5,9.5,10.7C528.8,339.4,524.5,343.5,519.3,343.5 M516.3,356.2
	c5.4,0,9.5-1.8,12.4-5.6l0.2,0.1v4.7h13.7v-45h-14.4v4.7l-0.2,0.1c-3.1-3.6-7.7-5.7-12.4-5.6c-11.6,0-20.5,9.6-20.5,23.4
	C495,346.8,504,356.2,516.3,356.2 M467.6,356.2c10.9,0,24-5.5,24-20.9c0-12.6-8.8-15.5-20.3-20c-7.1-2.8-9.5-4.4-9.4-7.5
	c0-3.1,2.3-5.1,6.1-5.1c3.7,0,7.7,1.7,13.3,6.2l8.6-11.2c-6.2-5.4-14.1-8.6-22.6-8.5c-12.1,0.2-21.4,8.4-21.4,19.2
	c0,12.9,9.9,17.6,19.9,21c7.4,2.5,9.7,4,9.7,7.6c0,2.9-2.2,5.5-7.4,5.5c-4.5,0-10.5-2.3-15.4-7.7l-9,10.9
	C450.6,353,459.3,356.2,467.6,356.2 M403.5,356.2c12.3,0,18.3-6.1,18.3-14.4c0-8.8-5.4-11.4-15.4-14.8c-4.5-1.6-6.2-2.6-6.2-4
	c0-1.7,1.9-2.5,3.6-2.5c3,0,6.9,1.6,10,4.7l6.8-10c-5.2-3.9-10.2-5.6-17-5.6c-9.4,0-16.8,5.2-16.8,14.4c0,8.6,6.6,12.3,14.2,14.6
	c5.6,1.7,7,2.7,7,4.1c0,1.7-1.5,2.7-4.3,2.7c-4.1,0-8-1.7-11.8-5.1l-6.7,9.3C390.2,354,396.4,356.2,403.5,356.2 M365.8,355.4h14.3
	v-45h-14.4L365.8,355.4z M373,304.8c5,0,8.6-3.6,8.6-8.3c0-4.5-3.7-8.1-8.6-8.1c-5,0-8.6,3.7-8.6,8.1
	C364.4,301.2,368,304.8,373,304.8 M341.5,356.2c12.3,0,18.3-6.1,18.3-14.4c0-8.8-5.4-11.4-15.4-14.8c-4.5-1.6-6.2-2.6-6.2-4
	c0-1.7,1.9-2.5,3.6-2.5c3,0,6.9,1.6,10,4.7l6.8-10c-5.2-3.9-10.2-5.6-17-5.6c-9.4,0-16.8,5.2-16.8,14.4c0,8.6,6.6,12.3,14.2,14.6
	c5.6,1.7,7,2.7,7,4.1c0,1.7-1.5,2.7-4.3,2.7c-4.1,0-8-1.7-11.8-5.1l-6.7,9.3C328.2,354,334.5,356.2,341.5,356.2 M296.6,343.5
	c-5.7,0-9.8-4.6-9.8-10.6c0-6.2,4-10.6,9.8-10.6c5.6,0,9.7,4.3,9.7,10.6C306.3,339.1,302,343.5,296.6,343.5 M296.6,356.2
	c14.2,0,24.3-9.5,24.3-23.3c0-13.9-10.1-23.4-24.3-23.4c-14.5,0-24.4,9.7-24.4,23.4C272.2,346.5,282,356.2,296.6,356.2 M222.7,355.4
	h14.3v-22.6c0-7,3.3-10.4,8.3-10.4c4.7,0,7.2,2.1,7.2,9.6v23.5h14.3v-27c0-14.3-6.8-18.9-16.1-18.9c-5.2-0.1-10.1,2.1-13.5,6.1h-0.2
	v-5.2h-14.3V355.4z M189.1,356.1c10.1,0,20-3.4,26-8v-29.3h-27.4v12.7h12.7v7.7c-3.5,1.9-7.4,2.9-11.3,2.9
	c-11.1,0-17.7-8.6-17.7-19.2c0-12.1,7.7-19.2,17-19.2c5.9,0,11.5,2.3,15.6,6.4l10.8-9.2c-6.7-7.7-17-11.7-26.5-11.7
	c-20.9,0-33.1,14.7-33.1,33.7C155.3,344.1,170.2,356.1,189.1,356.1"/>
</svg>
